<svg width="44" height="44" viewBox="0 0 44 44" fill="none" xmlns="http://www.w3.org/2000/svg">
<path d="M22 25.4017C23.8985 25.4017 25.4375 23.8627 25.4375 21.9642C25.4375 20.0658 23.8985 18.5267 22 18.5267C20.1015 18.5267 18.5625 20.0658 18.5625 21.9642C18.5625 23.8627 20.1015 25.4017 22 25.4017Z" fill="#00D8FF"/>
<path d="M22 29.8458C17.8683 29.9457 13.747 29.3888 9.79 28.1958C7.9621 27.6163 6.25726 26.7035 4.76163 25.5035C4.1909 25.0936 3.71562 24.565 3.3684 23.9541C3.02117 23.3432 2.81021 22.6644 2.75 21.9643C2.75 19.6914 5.247 17.4639 9.42975 16.0064C13.4925 14.7149 17.7374 14.089 22 14.1529C26.2057 14.0941 30.3937 14.7087 34.4052 15.9734C36.1656 16.5346 37.8127 17.4033 39.27 18.5391C39.831 18.93 40.2991 19.4394 40.6413 20.0313C40.9835 20.6232 41.1913 21.2831 41.25 21.9643C41.25 24.3265 38.4588 26.7204 33.9625 28.2081C30.0822 29.3623 26.0478 29.9146 22 29.8458V29.8458ZM22 15.7974C17.9219 15.7429 13.8611 16.3379 9.97012 17.5601C6.12012 18.9035 4.3945 20.7405 4.3945 21.9601C4.3945 23.2361 6.24938 25.2423 10.3221 26.6351C14.1076 27.7707 18.0491 28.2993 22 28.2013C25.8726 28.2705 29.7329 27.7465 33.4469 26.6475C37.675 25.2464 39.6 23.2375 39.6 21.9643C39.5306 21.5273 39.3714 21.1095 39.1324 20.7372C38.8933 20.365 38.5797 20.0463 38.2113 19.8014C36.9074 18.7937 35.4361 18.0238 33.8649 17.5271C30.0273 16.3223 26.0218 15.7383 22 15.7974V15.7974Z" fill="#00D8FF"/>
<path d="M14.19 39.1092C13.5486 39.1239 12.9147 38.9682 12.353 38.6582C10.384 37.5224 9.702 34.2472 10.5284 29.8953C11.4395 25.7305 13.0182 21.7406 15.2034 18.0799C17.2531 14.4074 19.8772 11.0865 22.9762 8.24315C24.3418 6.99837 25.9172 6.0054 27.6292 5.31027C28.2485 5.02007 28.924 4.86963 29.6079 4.86963C30.2917 4.86963 30.9673 5.02007 31.5865 5.31027C33.6339 6.49002 34.3118 10.1035 33.3561 14.7414C32.4168 18.6802 30.8791 22.4516 28.7966 25.9243C26.819 29.5534 24.2775 32.8454 21.2671 35.6772C19.852 36.9707 18.2096 37.9912 16.423 38.687C15.7078 38.9525 14.9528 39.0952 14.19 39.1092V39.1092ZM16.6279 18.8967C14.5435 22.402 13.0304 26.2167 12.1454 30.1978C11.385 34.2059 12.1151 36.6163 13.1766 37.2295C14.2766 37.8662 16.9469 37.2625 20.1891 34.43C23.0629 31.7171 25.4887 28.5659 27.3762 25.0938C29.3713 21.7739 30.8463 18.1681 31.7501 14.4018C32.6494 10.0361 31.8725 7.36315 30.7697 6.7279C30.3564 6.56954 29.9148 6.49865 29.4727 6.51971C29.0306 6.54077 28.5976 6.65333 28.2012 6.85027C26.6773 7.47913 25.2763 8.37189 24.0625 9.48752C21.1017 12.2111 18.5951 15.3903 16.6375 18.9049L16.6279 18.8967Z" fill="#00D8FF"/>
<path d="M29.8059 39.127C27.9428 39.127 25.5764 37.9995 23.1124 35.8806C19.9591 33.0113 17.2906 29.651 15.2103 25.9297C13.0525 22.3195 11.4863 18.3872 10.571 14.2821C10.1741 12.476 10.1005 10.6139 10.3538 8.7821C10.4123 8.10258 10.6192 7.44418 10.9599 6.85333C11.3006 6.26248 11.7667 5.75357 12.3255 5.36247C14.3701 4.1786 17.8393 5.39547 21.3799 8.53872C24.3232 11.3192 26.8227 14.5347 28.7911 18.073C30.9475 21.5989 32.5302 25.4451 33.4799 29.4676C33.8939 31.3399 33.9578 33.2727 33.6682 35.1683C33.5994 35.8674 33.3801 36.5433 33.0255 37.1497C32.671 37.7561 32.1894 38.2786 31.614 38.6815C31.0615 38.9877 30.4374 39.1415 29.8059 39.127V39.127ZM16.6334 25.102C18.6291 28.6583 21.1781 31.8743 24.1849 34.6293C27.2773 37.29 29.7303 37.862 30.7849 37.2418C31.8849 36.6025 32.6961 33.9927 31.8601 29.7701C30.9442 25.9296 29.4262 22.2583 27.3625 18.8925C25.484 15.506 23.0983 12.427 20.2881 9.76247C16.9551 6.80347 14.2519 6.1421 13.1505 6.7801C12.8072 7.05906 12.5255 7.40617 12.3232 7.7995C12.1208 8.19284 12.0022 8.62386 11.9749 9.06535C11.7563 10.699 11.8275 12.3583 12.1853 13.9672C13.0657 17.893 14.5678 21.6529 16.6348 25.1047L16.6334 25.102Z" fill="#00D8FF"/>
</svg>
